<svg width="857" height="850" viewBox="0 0 857 850" fill="none" xmlns="http://www.w3.org/2000/svg">
<path d="M376.203 3.70969C190.969 29.0073 46.8988 162.241 8.09759 344.047C-4.61426e-05 383.174 -0.337448 462.777 7.76019 503.591C39.8133 663.809 159.928 792.321 318.844 835.158C424.789 863.829 548.952 847.301 642.75 791.984C749.706 729.245 822.922 627.38 848.902 505.952C857 466.825 857.337 387.222 849.24 346.408C815.5 177.083 681.889 43.5113 511.501 8.43191C478.773 1.68588 407.918 -0.675229 376.203 3.70969ZM436.935 63.7494C438.959 67.1224 429.85 77.5787 424.789 77.5787C422.764 77.5787 410.618 84.9994 397.122 94.1065C373.166 110.297 343.137 142.003 336.389 158.531C334.702 163.253 330.991 171.686 328.629 177.757C321.544 193.61 322.556 241.845 330.654 271.527C345.837 328.868 383.963 371.706 431.874 386.21C498.342 405.773 571.221 387.559 613.059 340.674C623.181 329.206 651.185 272.876 651.185 263.769C651.185 257.698 658.608 255.337 661.644 260.059C666.368 267.817 665.019 287.043 658.27 311.329C637.014 384.523 589.103 436.805 520.611 460.416C420.74 495.158 308.048 444.563 267.222 346.408C233.819 266.13 251.364 180.793 314.121 118.392C335.04 97.4795 356.296 84.3248 398.134 66.1105C411.293 60.3764 433.898 59.0272 436.935 63.7494ZM296.913 109.96C296.913 112.658 290.84 122.103 283.755 130.872C265.198 153.134 248.665 183.491 239.555 212.837C230.108 242.856 226.734 295.813 232.807 319.761C238.205 342.023 255.076 379.464 268.909 400.714C285.104 424.999 318.844 459.067 337.739 470.198C378.902 493.809 429.175 504.94 477.086 500.892C507.789 498.194 554.688 483.015 576.282 468.511C584.38 463.114 592.14 458.73 593.489 458.73C598.213 458.73 636.339 416.904 648.823 398.015C678.177 353.829 692.011 278.61 680.202 229.027C672.779 199.007 674.803 191.249 686.95 202.718C705.507 219.583 737.222 273.214 749.369 306.606C771.3 368.333 771.637 456.706 750.381 522.142C723.726 604.107 661.307 677.301 585.392 715.753C510.489 753.868 422.764 763.987 344.15 743.749C239.892 716.428 148.119 632.44 112.017 531.249C97.8464 490.436 93.1228 462.44 93.4602 416.567C93.4602 372.718 93.7976 370.357 112.692 304.583C116.404 291.765 129.562 273.214 134.961 273.214C136.31 273.214 138.335 287.38 139.347 304.245C141.034 333.928 149.131 367.321 156.217 377.103C162.965 385.535 164.989 375.416 161.615 354.166C148.794 275.575 190.969 177.083 259.799 124.126C285.442 104.563 296.913 100.178 296.913 109.96ZM641.4 222.618C644.1 244.206 639.039 278.273 632.291 283.67C629.591 285.694 627.567 289.067 627.567 291.091C627.567 299.186 601.924 331.904 586.067 343.71C562.111 361.587 551.314 366.646 526.684 371.031C477.423 379.801 426.138 363.273 395.772 327.856C376.54 305.595 372.491 294.801 385.65 297.837C389.699 298.849 405.894 303.571 421.415 308.293C466.289 322.122 507.789 319.087 543.217 299.186C567.509 285.694 600.912 251.289 616.77 223.968C632.291 196.983 638.364 196.646 641.4 222.618Z" fill="#03445A"/>
</svg>
