<svg width="673" height="694" viewBox="0 0 673 694" fill="none" xmlns="http://www.w3.org/2000/svg">
<path d="M166.356 63.2395C191.998 43.6768 203.469 39.2918 203.469 49.0735C203.469 51.7714 197.397 61.2166 190.312 69.9856C171.755 92.2475 155.221 122.605 146.111 151.95C136.664 181.969 133.291 234.926 139.363 258.874C144.761 281.136 161.632 318.577 175.465 339.827C191.66 364.112 225.401 398.181 244.296 409.312C285.459 432.923 335.732 444.054 383.643 440.006C414.346 437.308 461.244 422.128 482.838 407.624C490.936 402.228 498.696 397.844 500.046 397.844C504.77 397.844 542.895 356.018 555.379 337.129C584.733 292.943 598.568 217.724 586.759 168.141C579.336 138.121 581.36 130.363 593.507 141.831C612.063 158.696 643.779 212.328 655.926 245.72C677.857 307.447 678.194 395.82 656.938 461.256C630.283 543.221 567.864 616.414 491.949 654.866C417.046 692.981 329.32 703.101 250.706 682.863C146.448 655.541 54.6753 571.553 18.5733 470.363C4.40331 429.55 -0.320677 401.554 0.0167083 355.681C0.0167083 311.832 0.354254 309.471 19.2482 243.697C22.9602 230.879 36.1187 212.327 41.5177 212.327C42.8667 212.331 44.8915 226.496 45.9034 243.359C47.5904 273.042 55.6875 306.435 62.7735 316.217C69.5213 324.648 71.545 314.529 68.171 293.28C55.3501 214.689 97.5256 116.196 166.356 63.2395ZM304.691 5.22385C317.849 -0.510101 340.453 -1.85924 343.491 2.86252C345.515 6.23547 336.407 16.6923 331.346 16.6926C329.321 16.6926 317.175 24.1129 303.679 33.2199C279.723 49.4102 249.693 81.1167 242.945 97.6447C241.258 102.367 237.548 110.8 235.186 116.87C228.101 132.723 229.113 180.958 237.211 210.64C252.394 267.981 290.52 310.819 338.431 325.323C404.899 344.886 477.778 326.672 519.616 279.787C529.738 268.319 557.741 211.989 557.741 202.882C557.741 196.811 565.164 194.45 568.2 199.172C572.924 206.93 571.576 226.157 564.827 250.443C543.571 323.636 495.661 375.919 427.169 399.53C327.298 434.271 214.605 383.676 173.778 285.522C140.375 205.244 157.921 119.906 220.678 57.5051C241.597 36.5929 262.853 23.4381 304.691 5.22385ZM523.327 163.082C538.848 136.097 544.921 135.76 547.957 161.732C550.657 183.32 545.597 217.387 538.849 222.784C536.149 224.808 534.124 228.181 534.124 230.205C534.123 238.301 508.481 271.018 492.624 282.823C468.668 300.7 457.871 305.76 433.241 310.145C383.98 318.915 332.694 302.387 302.328 266.97C283.096 244.709 279.047 233.916 292.206 236.951C296.255 237.963 312.451 242.684 327.972 247.406C372.846 261.235 414.346 258.201 449.774 238.3C474.065 224.808 507.469 190.403 523.327 163.082Z" fill="#03445A"/>
</svg>
